<svg id="svg" xmlns="http://www.w3.org/2000/svg" viewBox="113.5199966430664 50.18000030517578 180.47000122070312 100.24999237060547" height="100.24999237060547"><path d="M 123.52,118.22 L 123.53,117.71 L 124.12,115.34 L 125.57,111.72 L 128.56,103.22 L 130.34,98.47 L 131.43,93.73 L 133.21,88.98 L 133.96,86.74 L 134.81,83.86 L 136.06,81.72 L 137.25,78.84 L 137.76,78.07 L 138.86,75.19 L 139.37,74.17 L 139.62,72.54 L 140.25,71.17 L 140.51,70.91 L 140.51,70.41 L 140.25,70.15 L 140,70.15 L 137.63,70.74 L 136.25,71.37 L 134.01,72.49 L 131.72,74.78 L 130.97,76.41 L 129.63,79.91 L 129.63,80.92 L 129.63,82.55 L 129.26,85.05 L 129.26,85.81 L 129.26,87.44 L 129.26,88.21 L 129.26,89.84 L 129.26,90.35 L 129.26,91.11 L 129.51,91.62 L 129.88,92.99 L 130.51,94.37 L 131.51,96 L 132.02,97.02 L 133.28,98.9 L 135.31,101.19 L 135.69,102.56 L 136.2,103.58 L 136.7,104.09 L 136.96,104.6 L 137.72,105.62 L 138.23,106.38 L 139.49,108.01 L 140,108.52 L 140.5,109.28 L 140.76,109.54" fill="none" stroke="#3794ff" stroke-width="2"></path><path d="M 143.8,98.53 L 143.81,98.8 L 144.66,101.42 L 145.25,104.92 L 145.51,106.55 L 146.51,108.18 L 146.51,108.94 L 146.76,109.45 L 146.76,109.7 L 146.76,109.96 L 147.02,110.21 L 147.27,109.96 L 147.78,109.45 L 148.29,108.94 L 149.05,107.06 L 149.31,106.29 L 149.56,104.92 L 150.68,103.05 L 151.06,101.67 L 151.06,101.42 L 151.31,100.91 L 151.31,100.65 L 151.31,100.4 L 151.31,100.15 L 151.56,100.65 L 152.75,103.03 L 153.6,105.91 L 156.15,109.93 L 158.69,113.95 L 159.32,115.33 L 159.58,115.84 L 160.09,116.6 L 160.34,116.85 L 160.34,117.11" fill="none" stroke="#3794ff" stroke-width="2"></path><path d="M 176.09,101.33 L 176.36,101.34 L 177.48,101.34 L 177.99,101.34 L 179.62,101.34 L 181.86,101.34 L 182.88,101.34 L 184.51,101.34 L 185.28,101.34 L 185.78,101.34 L 186.29,100.83 L 186.55,100.83 L 186.8,100.58" fill="none" stroke="#3794ff" stroke-width="2"></path><path d="M 180.05,109.45 L 180.3,109.72 L 180.56,109.72 L 180.81,109.72 L 181.07,109.72 L 181.32,109.72 L 182.34,109.46 L 182.59,109.46 L 183.1,109.46 L 183.35,109.46 L 183.86,109.46 L 184.63,109.46 L 184.88,109.46 L 185.14,109.21 L 185.39,108.95 L 186.15,108.95 L 186.92,108.95 L 187.17,108.7 L 187.42,108.7" fill="none" stroke="#3794ff" stroke-width="2"></path><path d="M 203.52,106.22 L 203.78,106.23 L 204.03,105.98 L 204.03,105.72 L 204.03,104.96 L 204.76,98.96 L 207.66,91.72 L 209.28,78.34 L 209.28,69.84 L 209.28,66.34 L 209.28,64.71 L 209.65,63.08 L 209.65,62.07 L 209.65,61.56 L 209.65,60.44 L 209.4,60.18 L 208.89,60.69 L 208.64,60.95 L 208.38,61.45 L 208.38,61.96 L 208.01,64.21 L 208.01,67.7 L 208.01,69.94 L 208.01,73.95 L 208.01,74.71 L 208.01,75.47 L 208.01,75.73 L 208.01,75.98 L 208.01,78.35 L 208.01,83.1 L 208.01,87.85 L 208.6,92.59 L 209.35,94.22 L 209.35,94.73 L 209.35,95.24 L 209.35,95.49 L 209.35,95.75 L 209.35,96 L 209.6,96.76 L 209.86,97.78 L 210.11,98.29 L 210.11,99.05 L 210.62,99.82 L 210.88,100.32 L 210.88,100.58 L 211.13,100.83 L 211.38,101.34 L 212.13,102.46 L 212.64,102.97 L 216.2,106.53 L 220.88,111.21 L 223.17,113.5 L 224.54,114.13 L 225.31,114.89 L 226.94,115.52" fill="none" stroke="#3794ff" stroke-width="2"></path><path d="M 232.03,96.95 L 232.04,97.21 L 232.04,97.72 L 232.04,98.23 L 232.04,98.49 L 232.67,99.86 L 233.18,100.37 L 233.18,100.88 L 233.43,101.39 L 234.06,102.76 L 234.32,103.02 L 234.57,103.53 L 234.82,104.04 L 234.82,103.78 L 235.08,103.53 L 235.33,103.27 L 235.59,103.27 L 236.1,102.76 L 236.35,102.51 L 237.11,102.26 L 238.23,101.88 L 238.74,101.37 L 240.12,100.37 L 240.37,100.12 L 240.63,99.61 L 241.14,99.61 L 241.39,99.35 L 241.64,99.1 L 241.39,98.84 L 241.14,98.84 L 240.63,98.59 L 240.37,98.34 L 239.86,98.08 L 239.61,98.08 L 238.49,97.71 L 237.98,97.45 L 236.6,97.45 L 236.1,97.2 L 235.84,96.95 L 235.59,96.69 L 235.33,96.69 L 235.08,96.44" fill="none" stroke="#3794ff" stroke-width="2"></path><path d="M 235.08,96.42" fill="none" stroke="#3794ff" stroke-width="2"></path><path d="M 260.13,93.55 L 259.88,93.55 L 259.62,93.55 L 259.37,93.55 L 258.86,93.55 L 258.35,93.55 L 257.59,93.55 L 256.83,93.55 L 255.81,93.55 L 254.43,93.55 L 253.67,93.81 L 253.16,93.81 L 252.91,93.81 L 252.65,93.81 L 252.15,94.32 L 251.64,94.57 L 250.01,94.83 L 248.38,95.08 L 247,95.45 L 246.75,95.71 L 246.75,95.96 L 246.75,96.22 L 247,96.47 L 247.25,96.73 L 247.51,96.98 L 248.02,97.24 L 248.27,97.24 L 248.78,97.24 L 250.41,97.86 L 251.43,97.86 L 251.94,98.12 L 252.45,98.37 L 252.95,98.37 L 254.33,98.37 L 255.09,98.37 L 255.6,98.37 L 255.86,98.37 L 256.36,98.37 L 256.87,98.37 L 257.13,98.37 L 258.5,98 L 258.76,98 L 259.27,97.74 L 259.52,97.74 L 259.78,97.49 L 260.03,97.24 L 260.03,96.98 L 260.28,96.73 L 260.54,96.73 L 260.79,96.47 L 260.79,96.73 L 260.79,96.98 L 260.28,97.49 L 259.52,98.51 L 259.52,104.5 L 259.52,108 L 259.52,112.74 L 258.42,117.49 L 258.42,120.98 L 258.42,124.48 L 258.42,129.22 L 258.42,131.11 L 258.17,132.74 L 258.17,134.11 L 257.29,135.74 L 256.78,136.76 L 255.77,138.39 L 255.27,139.15 L 255.27,139.92 L 254.5,140.43 L 254.5,140.17 L 254.25,139.92 L 253.99,139.66 L 253.74,139.41 L 253.49,139.15 L 252.98,138.65 L 252.72,138.39 L 252.47,138.14 L 252.21,137.88 L 251.2,137.12 L 250.18,136.36 L 249.16,135.59 L 248.65,135.34 L 247.89,134.58 L 247.64,134.32 L 247.13,134.07 L 246.62,133.81 L 245.86,133.3 L 242.97,131.86 L 241.6,131.24 L 241.34,130.98 L 241.09,130.98" fill="none" stroke="#3794ff" stroke-width="2"></path><path d="M 269.27,128.42 L 269.28,128.17 L 270.29,127.92 L 272.54,126.8 L 274.17,126.42 L 274.93,126.17 L 275.44,125.66 L 275.44,124.64 L 275.69,124.14 L 275.69,123.37 L 276.2,122.61 L 276.2,121.85 L 276.45,120.83 L 276.45,120.32 L 276.45,119.56 L 276.45,119.3 L 276.2,119.05 L 275.95,119.05 L 274.06,119.3 L 273.3,119.3 L 272.79,119.3 L 272.28,119.3 L 271.77,119.56 L 271.52,119.56 L 271.01,119.56 L 270.76,119.56 L 270.25,119.81 L 268.87,119.81 L 267.85,120.07 L 267.34,120.57 L 267.09,120.83 L 266.84,121.08 L 266.58,121.34 L 266.84,121.59 L 266.84,121.85 L 266.84,122.1 L 267.09,123.12 L 267.34,124.14 L 268.69,127.63 L 268.69,127.88 L 268.94,128.65 L 268.94,129.16 L 269.31,130.28 L 270.06,131.4 L 270.32,131.91 L 270.32,132.42 L 270.57,132.92 L 270.82,133.43 L 271.08,133.43 L 271.59,133.43 L 271.84,133.43 L 273.22,133.43 L 274.85,133.43 L 277.09,133.06 L 281.71,132.09 L 282.72,131.58 L 282.98,131.33 L 283.49,131.33 L 283.74,131.08 L 283.99,130.82" fill="none" stroke="#3794ff" stroke-width="2"></path></svg>